<svg id="Layer_1" data-name="Layer 1" xmlns="http://www.w3.org/2000/svg" viewBox="0 0 22 22"><defs><style>.cls-1{fill:none;stroke:#fff;stroke-linecap:round;stroke-linejoin:round;stroke-width:2px;}</style></defs><path class="cls-1" d="M19,15v2.4A1.6,1.6,0,0,1,17.36,19h-.15a15.65,15.65,0,0,1-6.9-2.45,15.59,15.59,0,0,1-4.8-4.8A15.83,15.83,0,0,1,3.05,4.77,1.59,1.59,0,0,1,4.5,3H7A1.59,1.59,0,0,1,8.64,4.4,10.16,10.16,0,0,0,9.2,6.65a1.6,1.6,0,0,1-.36,1.69l-1,1a12.79,12.79,0,0,0,4.8,4.8l1-1a1.61,1.61,0,0,1,1.69-.36,10.29,10.29,0,0,0,2.25.56A1.6,1.6,0,0,1,19,15Z"/></svg>